<svg width="96" height="96" viewBox="0 0 96 96" fill="none" xmlns="http://www.w3.org/2000/svg">
<g clip-path="url(#clip0_4303_1230)">
<g clip-path="url(#clip1_4303_1230)">
<path d="M12 6C12 2.68629 14.6863 0 18 0H78C81.3137 0 84 2.68629 84 6V66C84 69.3137 81.3137 72 78 72H18C14.6863 72 12 69.3137 12 66V6Z" fill="#9C640A"/>
<mask id="mask0_4303_1230" style="mask-type:alpha" maskUnits="userSpaceOnUse" x="12" y="0" width="72" height="72">
<path d="M12 6C12 2.68629 14.6863 0 18 0H78C81.3137 0 84 2.68629 84 6V66C84 69.3137 81.3137 72 78 72H18C14.6863 72 12 69.3137 12 66V6Z" fill="#9C640A"/>
</mask>
<g mask="url(#mask0_4303_1230)">
<g filter="url(#filter0_dd_4303_1230)">
<path d="M6 18C6 14.6863 8.68629 12 12 12H84C87.3137 12 90 14.6863 90 18V78C90 81.3137 87.3137 84 84 84H12C8.68629 84 6 81.3137 6 78V18Z" fill="#BC822A"/>
</g>
</g>
<path d="M6 18C6 14.6863 8.68629 12 12 12H84C87.3137 12 90 14.6863 90 18V78C90 81.3137 87.3137 84 84 84H12C8.68629 84 6 81.3137 6 78V18Z" fill="#BC822A"/>
<mask id="mask1_4303_1230" style="mask-type:alpha" maskUnits="userSpaceOnUse" x="6" y="12" width="84" height="72">
<path d="M6 18C6 14.6863 8.68629 12 12 12H84C87.3137 12 90 14.6863 90 18V78C90 81.3137 87.3137 84 84 84H12C8.68629 84 6 81.3137 6 78V18Z" fill="#BC822A"/>
</mask>
<g mask="url(#mask1_4303_1230)">
<g filter="url(#filter1_dd_4303_1230)">
<path d="M0 30C0 26.6863 2.68629 24 6 24H90C93.3137 24 96 26.6863 96 30V90C96 93.3137 93.3137 96 90 96H6C2.68629 96 0 93.3137 0 90V30Z" fill="#D9D9D9"/>
<path d="M0 30C0 26.6863 2.68629 24 6 24H90C93.3137 24 96 26.6863 96 30V90C96 93.3137 93.3137 96 90 96H6C2.68629 96 0 93.3137 0 90V30Z" fill="url(#paint0_linear_4303_1230)"/>
<path d="M0 30C0 26.6863 2.68629 24 6 24H90C93.3137 24 96 26.6863 96 30V90C96 93.3137 93.3137 96 90 96H6C2.68629 96 0 93.3137 0 90V30Z" fill="url(#paint1_linear_4303_1230)"/>
</g>
</g>
<path d="M0 30C0 26.6863 2.68629 24 6 24H90C93.3137 24 96 26.6863 96 30V90C96 93.3137 93.3137 96 90 96H6C2.68629 96 0 93.3137 0 90V30Z" fill="#D9D9D9"/>
<path d="M0 30C0 26.6863 2.68629 24 6 24H90C93.3137 24 96 26.6863 96 30V90C96 93.3137 93.3137 96 90 96H6C2.68629 96 0 93.3137 0 90V30Z" fill="url(#paint2_linear_4303_1230)"/>
<path d="M0 30C0 26.6863 2.68629 24 6 24H90C93.3137 24 96 26.6863 96 30V90C96 93.3137 93.3137 96 90 96H6C2.68629 96 0 93.3137 0 90V30Z" fill="url(#paint3_linear_4303_1230)"/>
<g filter="url(#filter2_dd_4303_1230)">
<path fill-rule="evenodd" clip-rule="evenodd" d="M54 42C54 38.6863 51.3137 36 48 36C44.6863 36 42 38.6863 42 42V63.5147L37.2426 58.7574C34.8995 56.4142 31.1005 56.4142 28.7574 58.7574C26.4142 61.1005 26.4142 64.8995 28.7574 67.2426L43.7574 82.2426C46.1005 84.5858 49.8995 84.5858 52.2426 82.2426L67.2426 67.2426C69.5858 64.8995 69.5858 61.1005 67.2426 58.7574C64.8995 56.4142 61.1005 56.4142 58.7574 58.7574L54 63.5147V42Z" fill="url(#paint4_linear_4303_1230)"/>
</g>
</g>
</g>
<defs>
<filter id="filter0_dd_4303_1230" x="2" y="6.02" width="92" height="80" filterUnits="userSpaceOnUse" color-interpolation-filters="sRGB">
<feFlood flood-opacity="0" result="BackgroundImageFix"/>
<feColorMatrix in="SourceAlpha" type="matrix" values="0 0 0 0 0 0 0 0 0 0 0 0 0 0 0 0 0 0 127 0" result="hardAlpha"/>
<feOffset dy="-1.98"/>
<feGaussianBlur stdDeviation="2"/>
<feColorMatrix type="matrix" values="0 0 0 0 0 0 0 0 0 0 0 0 0 0 0 0 0 0 0.32 0"/>
<feBlend mode="normal" in2="BackgroundImageFix" result="effect1_dropShadow_4303_1230"/>
<feColorMatrix in="SourceAlpha" type="matrix" values="0 0 0 0 0 0 0 0 0 0 0 0 0 0 0 0 0 0 127 0" result="hardAlpha"/>
<feOffset dy="-0.42"/>
<feGaussianBlur stdDeviation="0.2"/>
<feColorMatrix type="matrix" values="0 0 0 0 0 0 0 0 0 0 0 0 0 0 0 0 0 0 0.15 0"/>
<feBlend mode="normal" in2="effect1_dropShadow_4303_1230" result="effect2_dropShadow_4303_1230"/>
<feBlend mode="normal" in="SourceGraphic" in2="effect2_dropShadow_4303_1230" result="shape"/>
</filter>
<filter id="filter1_dd_4303_1230" x="-4" y="18.02" width="104" height="80" filterUnits="userSpaceOnUse" color-interpolation-filters="sRGB">
<feFlood flood-opacity="0" result="BackgroundImageFix"/>
<feColorMatrix in="SourceAlpha" type="matrix" values="0 0 0 0 0 0 0 0 0 0 0 0 0 0 0 0 0 0 127 0" result="hardAlpha"/>
<feOffset dy="-1.98"/>
<feGaussianBlur stdDeviation="2"/>
<feColorMatrix type="matrix" values="0 0 0 0 0 0 0 0 0 0 0 0 0 0 0 0 0 0 0.32 0"/>
<feBlend mode="normal" in2="BackgroundImageFix" result="effect1_dropShadow_4303_1230"/>
<feColorMatrix in="SourceAlpha" type="matrix" values="0 0 0 0 0 0 0 0 0 0 0 0 0 0 0 0 0 0 127 0" result="hardAlpha"/>
<feOffset dy="-0.42"/>
<feGaussianBlur stdDeviation="0.2"/>
<feColorMatrix type="matrix" values="0 0 0 0 0 0 0 0 0 0 0 0 0 0 0 0 0 0 0.15 0"/>
<feBlend mode="normal" in2="effect1_dropShadow_4303_1230" result="effect2_dropShadow_4303_1230"/>
<feBlend mode="normal" in="SourceGraphic" in2="effect2_dropShadow_4303_1230" result="shape"/>
</filter>
<filter id="filter2_dd_4303_1230" x="23" y="34" width="50" height="56" filterUnits="userSpaceOnUse" color-interpolation-filters="sRGB">
<feFlood flood-opacity="0" result="BackgroundImageFix"/>
<feColorMatrix in="SourceAlpha" type="matrix" values="0 0 0 0 0 0 0 0 0 0 0 0 0 0 0 0 0 0 127 0" result="hardAlpha"/>
<feOffset dy="2"/>
<feGaussianBlur stdDeviation="2"/>
<feColorMatrix type="matrix" values="0 0 0 0 0 0 0 0 0 0 0 0 0 0 0 0 0 0 0.32 0"/>
<feBlend mode="normal" in2="BackgroundImageFix" result="effect1_dropShadow_4303_1230"/>
<feColorMatrix in="SourceAlpha" type="matrix" values="0 0 0 0 0 0 0 0 0 0 0 0 0 0 0 0 0 0 127 0" result="hardAlpha"/>
<feOffset dy="0.4"/>
<feGaussianBlur stdDeviation="0.2"/>
<feColorMatrix type="matrix" values="0 0 0 0 0 0 0 0 0 0 0 0 0 0 0 0 0 0 0.24 0"/>
<feBlend mode="normal" in2="effect1_dropShadow_4303_1230" result="effect2_dropShadow_4303_1230"/>
<feBlend mode="normal" in="SourceGraphic" in2="effect2_dropShadow_4303_1230" result="shape"/>
</filter>
<linearGradient id="paint0_linear_4303_1230" x1="0" y1="24" x2="69.12" y2="116.16" gradientUnits="userSpaceOnUse">
<stop stop-color="#DEB678"/>
<stop offset="1" stop-color="#C59141"/>
</linearGradient>
<linearGradient id="paint1_linear_4303_1230" x1="27" y1="15" x2="57" y2="105" gradientUnits="userSpaceOnUse">
<stop stop-color="#DEB678"/>
<stop offset="1" stop-color="#B57F2D"/>
</linearGradient>
<linearGradient id="paint2_linear_4303_1230" x1="0" y1="24" x2="69.12" y2="116.16" gradientUnits="userSpaceOnUse">
<stop stop-color="#DEB678"/>
<stop offset="1" stop-color="#C59141"/>
</linearGradient>
<linearGradient id="paint3_linear_4303_1230" x1="27" y1="15" x2="57" y2="105" gradientUnits="userSpaceOnUse">
<stop stop-color="#DEB678"/>
<stop offset="1" stop-color="#B57F2D"/>
</linearGradient>
<linearGradient id="paint4_linear_4303_1230" x1="36.5455" y1="28.9091" x2="51.2419" y2="80.3465" gradientUnits="userSpaceOnUse">
<stop offset="0.270833" stop-color="white"/>
<stop offset="1" stop-color="#F0F0F0"/>
</linearGradient>
<clipPath id="clip0_4303_1230">
<rect width="96" height="96" fill="white"/>
</clipPath>
<clipPath id="clip1_4303_1230">
<rect width="96" height="96" fill="white"/>
</clipPath>
</defs>
</svg>
